<mxfile host="Electron" agent="Mozilla/5.0 (Windows NT 10.0; Win64; x64) AppleWebKit/537.36 (KHTML, like Gecko) draw.io/26.1.1 Chrome/132.0.6834.210 Electron/34.3.3 Safari/537.36" version="26.1.1">
  <diagram name="第 1 页" id="iuXHy8lRBsag6zJJ8RDM">
    <mxGraphModel dx="1562" dy="917" grid="1" gridSize="10" guides="1" tooltips="1" connect="1" arrows="1" fold="1" page="1" pageScale="1" pageWidth="850" pageHeight="950" math="0" shadow="0">
      <root>
        <mxCell id="0" />
        <mxCell id="1" parent="0" />
        <mxCell id="10Q8YxAoTIpz1AEdh6SX-1" value="字节码" style="swimlane;fontStyle=0;childLayout=stackLayout;horizontal=1;startSize=26;fillColor=none;horizontalStack=0;resizeParent=1;resizeParentMax=0;resizeLast=0;collapsible=1;marginBottom=0;whiteSpace=wrap;html=1;" vertex="1" parent="1">
          <mxGeometry x="70" y="410" width="140" height="78" as="geometry">
            <mxRectangle x="100" y="540" width="80" height="30" as="alternateBounds" />
          </mxGeometry>
        </mxCell>
        <mxCell id="10Q8YxAoTIpz1AEdh6SX-2" value="指令序列" style="text;strokeColor=none;fillColor=none;align=left;verticalAlign=top;spacingLeft=4;spacingRight=4;overflow=hidden;rotatable=0;points=[[0,0.5],[1,0.5]];portConstraint=eastwest;whiteSpace=wrap;html=1;" vertex="1" parent="10Q8YxAoTIpz1AEdh6SX-1">
          <mxGeometry y="26" width="140" height="26" as="geometry" />
        </mxCell>
        <mxCell id="10Q8YxAoTIpz1AEdh6SX-3" value="常量表、符号表等信息" style="text;strokeColor=none;fillColor=none;align=left;verticalAlign=top;spacingLeft=4;spacingRight=4;overflow=hidden;rotatable=0;points=[[0,0.5],[1,0.5]];portConstraint=eastwest;whiteSpace=wrap;html=1;" vertex="1" parent="10Q8YxAoTIpz1AEdh6SX-1">
          <mxGeometry y="52" width="140" height="26" as="geometry" />
        </mxCell>
        <mxCell id="10Q8YxAoTIpz1AEdh6SX-4" value="" style="rounded=1;whiteSpace=wrap;html=1;dashed=1;dashPattern=8 8;container=0;" vertex="1" parent="1">
          <mxGeometry x="50" y="550" width="390" height="230" as="geometry" />
        </mxCell>
        <mxCell id="10Q8YxAoTIpz1AEdh6SX-5" style="edgeStyle=orthogonalEdgeStyle;rounded=0;orthogonalLoop=1;jettySize=auto;html=1;exitX=1;exitY=0.5;exitDx=0;exitDy=0;entryX=0;entryY=0.5;entryDx=0;entryDy=0;" edge="1" parent="1" source="10Q8YxAoTIpz1AEdh6SX-9" target="10Q8YxAoTIpz1AEdh6SX-15">
          <mxGeometry relative="1" as="geometry" />
        </mxCell>
        <mxCell id="10Q8YxAoTIpz1AEdh6SX-6" value="创建" style="edgeLabel;html=1;align=center;verticalAlign=middle;resizable=0;points=[];" vertex="1" connectable="0" parent="10Q8YxAoTIpz1AEdh6SX-5">
          <mxGeometry x="-0.1741" y="1" relative="1" as="geometry">
            <mxPoint as="offset" />
          </mxGeometry>
        </mxCell>
        <mxCell id="10Q8YxAoTIpz1AEdh6SX-7" style="edgeStyle=orthogonalEdgeStyle;rounded=0;orthogonalLoop=1;jettySize=auto;html=1;entryX=0.5;entryY=0;entryDx=0;entryDy=0;" edge="1" parent="1" source="10Q8YxAoTIpz1AEdh6SX-1" target="10Q8YxAoTIpz1AEdh6SX-9">
          <mxGeometry relative="1" as="geometry" />
        </mxCell>
        <mxCell id="10Q8YxAoTIpz1AEdh6SX-8" value="输入" style="edgeLabel;html=1;align=center;verticalAlign=middle;resizable=0;points=[];" vertex="1" connectable="0" parent="10Q8YxAoTIpz1AEdh6SX-7">
          <mxGeometry x="-0.1627" y="-2" relative="1" as="geometry">
            <mxPoint y="4" as="offset" />
          </mxGeometry>
        </mxCell>
        <mxCell id="10Q8YxAoTIpz1AEdh6SX-9" value="字节码加载" style="rounded=1;whiteSpace=wrap;html=1;" vertex="1" parent="1">
          <mxGeometry x="80" y="580" width="120" height="60" as="geometry" />
        </mxCell>
        <mxCell id="10Q8YxAoTIpz1AEdh6SX-10" style="edgeStyle=orthogonalEdgeStyle;rounded=0;orthogonalLoop=1;jettySize=auto;html=1;exitX=0.5;exitY=1;exitDx=0;exitDy=0;" edge="1" parent="1" source="10Q8YxAoTIpz1AEdh6SX-12" target="10Q8YxAoTIpz1AEdh6SX-16">
          <mxGeometry relative="1" as="geometry" />
        </mxCell>
        <mxCell id="10Q8YxAoTIpz1AEdh6SX-11" value="IO" style="edgeLabel;html=1;align=center;verticalAlign=middle;resizable=0;points=[];" vertex="1" connectable="0" parent="10Q8YxAoTIpz1AEdh6SX-10">
          <mxGeometry x="-0.4506" y="-2" relative="1" as="geometry">
            <mxPoint x="3" as="offset" />
          </mxGeometry>
        </mxCell>
        <mxCell id="10Q8YxAoTIpz1AEdh6SX-12" value="解释执行指令序列" style="rounded=1;whiteSpace=wrap;html=1;" vertex="1" parent="1">
          <mxGeometry x="290" y="690" width="120" height="60" as="geometry" />
        </mxCell>
        <mxCell id="10Q8YxAoTIpz1AEdh6SX-13" value="解释器" style="text;html=1;align=center;verticalAlign=middle;whiteSpace=wrap;rounded=0;fontStyle=1;fontSize=20;" vertex="1" parent="1">
          <mxGeometry x="202.5" y="510" width="85" height="30" as="geometry" />
        </mxCell>
        <mxCell id="10Q8YxAoTIpz1AEdh6SX-14" style="edgeStyle=orthogonalEdgeStyle;rounded=0;orthogonalLoop=1;jettySize=auto;html=1;exitX=0.5;exitY=1;exitDx=0;exitDy=0;entryX=0.5;entryY=0;entryDx=0;entryDy=0;" edge="1" parent="1" source="10Q8YxAoTIpz1AEdh6SX-15" target="10Q8YxAoTIpz1AEdh6SX-12">
          <mxGeometry relative="1" as="geometry" />
        </mxCell>
        <mxCell id="10Q8YxAoTIpz1AEdh6SX-15" value="入口栈帧" style="rounded=0;whiteSpace=wrap;html=1;" vertex="1" parent="1">
          <mxGeometry x="290" y="580" width="120" height="60" as="geometry" />
        </mxCell>
        <mxCell id="10Q8YxAoTIpz1AEdh6SX-16" value="指令运行结果" style="rounded=0;whiteSpace=wrap;html=1;" vertex="1" parent="1">
          <mxGeometry x="300" y="810" width="100" height="50" as="geometry" />
        </mxCell>
      </root>
    </mxGraphModel>
  </diagram>
</mxfile>
